Title                            : The Skeptic
Also Known As                    : The Haunting of Bryan Becket
Year                             : 2009
Genre                            : Horror | Thriller
iMDB URL                         : http://www.imdb.com/title/tt0493451/

Complete name                    : The.Haunting.Of.Bryan.Becket.2009.BRRIP.720P.H264-ZEKTORM.mp4
Format                           : MPEG-4
Format profile                   : Base Media
Codec ID                         : isom
File size                        : 2.05 GiB
Duration                         : 1h 28mn
Overall bit rate                 : 3307 Kbps

Video
ID                               : 1
Format                           : AVC
Format/Info                      : Advanced Video Codec
Format profile                   : High@L4.0
Format settings, CABAC           : Yes
Format settings, ReFrames        : 8 frames
Codec ID                         : avc1
Codec ID/Info                    : Advanced Video Coding
Duration                         : 1h 28mn
Bit rate mode                    : Variable
Bit rate                         : 3123 Kbps
Maximum bit rate                 : 22.7 Mbps
Width                            : 1280 pixels
Height                           : 720 pixels
Display aspect ratio             : 16/9
Frame rate mode                  : Constant
Frame rate                       : 23.976 fps
Resolution                       : 24 bits
Colorimetry                      : 4:2:0
Scan type                        : Progressive
Bits/(Pixel*Frame)               : 0.141
Stream size                      : 1.94 GiB (94%)
Title                            : Video
Writing library                  : x264

Audio
ID                               : 2
Format                           : AAC
Format/Info                      : Advanced Audio Codec
Format version                   : Version 4
Format profile                   : LC
Format settings, SBR             : Yes
Format settings, PS              : No
Codec ID                         : 40
Duration                         : 1h 28mn
Bit rate mode                    : Variable
Bit rate                         : 180 Kbps
Maximum bit rate                 : 245 Kbps
Channel(s)                       : 6 channels
Channel positions                : Front: L C R, Rear: L R, LFE
Sampling rate                    : 48.0 KHz
Resolution                       : 16 bits
Stream size                      : 115 MiB (5%)
Language                         : English



Screenshots:
 
http://img714.imageshack.us/img714/592/snapth1.png
 
http://img153.imageshack.us/img153/7198/snapth2.png
 
http://img715.imageshack.us/img715/3554/snapth3.png
 
http://img28.imageshack.us/img28/2403/snapth4.png
